<?xml version="1.0" encoding="utf-8"?>
<!-- Generator: Adobe Illustrator 24.0.2, SVG Export Plug-In . SVG Version: 6.00 Build 0)  -->
<svg version="1.1" id="Layer_1" xmlns="http://www.w3.org/2000/svg" xmlns:xlink="http://www.w3.org/1999/xlink" x="0px" y="0px"
	 viewBox="0 0 27.7 36.3" style="enable-background:new 0 0 27.7 36.3;" xml:space="preserve">
<style type="text/css">
	.st0{fill:#D6D6D6;}
</style>
<path id="XMLID_127_" class="st0" d="M27.7,6.3c0-4.2-7-6.3-13.8-6.3S0,2.2,0,6.3v0.1c0,0,0,0,0,0.1v23.6c0,4.1,7,6.2,13.8,6.2
	s13.8-2.1,13.8-6.2V6.5c0,0,0,0,0-0.1C27.7,6.4,27.7,6.4,27.7,6.3z M24.5,18.3c0,0.9-3.7,3-10.7,3s-10.7-2.2-10.7-3v-7.8
	c2.8,1.4,6.7,2.2,10.7,2.2s7.9-0.7,10.7-2.2V18.3z M13.8,3.2c7,0,10.7,2.2,10.7,3.2s-3.6,3.2-10.7,3.2S3.2,7.3,3.2,6.3
	S6.8,3.2,13.8,3.2z M13.8,33.2c-6.9,0-10.7-2.2-10.7-3v-7.7c2.8,1.4,6.7,2.1,10.7,2.1s7.9-0.7,10.7-2.1v7.7
	C24.5,31,20.8,33.2,13.8,33.2z M20.5,17v-2c0-0.8,0.6-1.4,1.4-1.4s1.4,0.6,1.4,1.4v2c0,0.8-0.6,1.4-1.4,1.4S20.5,17.7,20.5,17z"/>
</svg>
