<?xml version="1.0" encoding="utf-8"?>
<!-- Generator: Adobe Illustrator 24.0.2, SVG Export Plug-In . SVG Version: 6.00 Build 0)  -->
<svg version="1.1" id="Layer_1" xmlns="http://www.w3.org/2000/svg" xmlns:xlink="http://www.w3.org/1999/xlink" x="0px" y="0px"
	 viewBox="0 0 31.5 30.7" style="enable-background:new 0 0 31.5 30.7;" xml:space="preserve">
<style type="text/css">
	.st0{fill:#D6D6D6;}
</style>
<g>
	<path class="st0" d="M22.6,0H8.9C4,0,0,4,0,8.9v7c0,4.9,4,8.9,8.9,8.9h1.2l2.3,3.9c0.7,1.2,1.9,1.9,3.3,1.9c1.4,0,2.6-0.7,3.3-1.9
		l2.3-3.9h1.2c4.9,0,8.9-4,8.9-8.9v-7C31.5,4,27.5,0,22.6,0z M29.1,16c0,3.6-2.9,6.5-6.5,6.5h-1.9c-0.4,0-0.8,0.2-1,0.6L17,27.6
		c-0.4,0.6-1,0.7-1.2,0.7c-0.2,0-0.8-0.1-1.2-0.7l-2.7-4.5c-0.2-0.4-0.6-0.6-1-0.6H9c-3.6,0-6.5-2.9-6.5-6.5v-7
		c0-3.6,2.9-6.5,6.5-6.5h13.6c3.6,0,6.5,2.9,6.5,6.5V16z"/>
	<path class="st0" d="M11.5,7.2c-0.8,0-1.5,0.3-2.1,0.9c-0.6,0.6-0.9,1.3-0.9,2c0,0.7,0.2,1.4,0.7,2c0.5,0.6,1.3,0.7,2,0.8
		c-0.1,0.9-0.6,1.9-1.2,2.6c-0.1,0.1-0.2,0.2-0.3,0.3c-0.1,0.2-0.1,0.4,0,0.6l1.1,1.2c0.2,0.2,0.4,0.2,0.6,0
		c0.5-0.5,0.9-1.1,1.3-1.7c1.1-1.7,1.6-3.4,1.6-5.1c0-1-0.3-1.8-0.9-2.5C13,7.5,12.3,7.2,11.5,7.2z"/>
	<path class="st0" d="M20,7.2c-0.8,0-1.5,0.3-2.1,0.9c-0.6,0.6-0.9,1.3-0.9,2c0,0.7,0.2,1.4,0.7,2c0.5,0.6,1.3,0.7,2,0.8
		c-0.1,0.9-0.6,1.9-1.2,2.6c-0.1,0.1-0.2,0.2-0.3,0.3c-0.1,0.2-0.1,0.4,0,0.6l1.1,1.2c0.2,0.2,0.4,0.2,0.6,0
		c0.5-0.5,0.9-1.1,1.3-1.7c1.1-1.7,1.6-3.4,1.6-5.1c0-1-0.3-1.8-0.9-2.5C21.5,7.5,20.8,7.2,20,7.2z"/>
</g>
</svg>
