<?xml version="1.0" encoding="utf-8"?>
<!-- Generator: Adobe Illustrator 24.0.2, SVG Export Plug-In . SVG Version: 6.00 Build 0)  -->
<svg version="1.1" id="Layer_1" xmlns="http://www.w3.org/2000/svg" xmlns:xlink="http://www.w3.org/1999/xlink" x="0px" y="0px"
	 viewBox="0 0 36.3 30.8" style="enable-background:new 0 0 36.3 30.8;" xml:space="preserve">
<style type="text/css">
	.st0{fill:#D6D6D6;}
</style>
<path id="XMLID_183_" class="st0" d="M33.3,0H3C1.3,0,0,1.3,0,3v17.5c0,1.7,1.3,3.2,3,3.2h10v1.6l-3,2.4c-0.5,0.4-0.8,1.3-0.5,1.9
	c0.2,0.6,0.8,1.2,1.5,1.2h14.2c0.7,0,1.3-0.5,1.5-1.2s0-1.4-0.5-1.9l-3-2.4v-1.6h10c1.7,0,3-1.5,3-3.2V3C36.3,1.3,35,0,33.3,0z
	 M21,27.2l1,0.9h-7.8l1-0.9c0.3-0.3,0.6-0.8,0.6-1.2v-2.3h4.7V26C20.5,26.4,20.7,26.9,21,27.2z M33.2,20.5h-30V3.2h30V20.5z"/>
</svg>
