<?xml version="1.0" encoding="utf-8"?>
<!-- Generator: Adobe Illustrator 18.1.1, SVG Export Plug-In . SVG Version: 6.00 Build 0)  -->
<svg version="1.1" id="Layer_1" xmlns="http://www.w3.org/2000/svg" xmlns:xlink="http://www.w3.org/1999/xlink" x="0px" y="0px"
	 viewBox="-289 381 32 32" enable-background="new -289 381 32 32" xml:space="preserve">
<path fill="#FFFFFF" d="M-260.8,381h-24.4c-2.1,0-3.8,1.7-3.8,3.8v24.4c0,2.1,1.7,3.8,3.8,3.8h24.4c2.1,0,3.8-1.7,3.8-3.8v-24.4
	C-257,382.7-258.7,381-260.8,381z M-265,385h3c0.6,0,1,0.4,1,1v3c0,0.6-0.4,1-1,1h-3c-0.6,0-1-0.4-1-1v-3
	C-266,385.4-265.6,385-265,385z M-273,390.9c3.4,0,6.2,2.7,6.2,6.1s-2.8,6.1-6.2,6.1s-6.2-2.7-6.2-6.1
	C-279.1,393.6-276.4,390.9-273,390.9z M-261,410h-24c-0.6,0-1-0.4-1-1v-15h4c-0.5,0.8-0.7,2.1-0.7,3c0,5.4,4.4,9.7,9.7,9.7
	c5.4,0,9.7-4.4,9.7-9.7c0-0.9-0.1-2.3-0.8-3h4v15C-260,409.6-260.4,410-261,410z"/>
</svg>
